<?xml version="1.0" standalone="no"?>
<!DOCTYPE svg PUBLIC "-//W3C//DTD SVG 20010904//EN"
 "http://www.w3.org/TR/2001/REC-SVG-20010904/DTD/svg10.dtd">
<svg version="1.0" xmlns="http://www.w3.org/2000/svg"
 width="512.000000pt" height="512.000000pt" viewBox="0 0 512.000000 512.000000"
 preserveAspectRatio="xMidYMid meet">
<metadata>
Created by potrace 1.10, written by Peter Selinger 2001-2011
</metadata>
<g transform="translate(0.000000,512.000000) scale(0.100000,-0.100000)"
fill="#000000" stroke="none">
<path d="M2145 4635 c-66 -56 -108 -84 -125 -84 -14 0 -77 8 -140 18 -86 14
-117 16 -122 8 -4 -7 -26 -62 -49 -124 -22 -62 -46 -116 -52 -121 -10 -7 -101
-44 -228 -91 l-26 -9 22 -138 22 -138 -87 -107 -88 -106 88 -109 88 -109 -19
-110 c-30 -174 -39 -155 108 -213 l126 -49 47 -124 c29 -78 52 -125 62 -127 9
-2 71 6 139 17 l123 20 105 -85 c58 -46 110 -83 117 -80 7 3 56 41 111 85 l98
80 124 -20 c68 -11 130 -19 139 -17 10 2 33 49 62 127 l47 125 124 47 c146 56
140 44 110 214 l-19 110 88 109 88 109 -88 106 -87 107 22 138 22 138 -26 9
c-127 47 -218 84 -228 91 -6 5 -30 59 -52 121 -23 62 -45 117 -49 124 -5 8
-36 6 -122 -8 -63 -10 -126 -19 -138 -19 -15 0 -62 31 -127 85 -57 47 -105 85
-107 84 -2 0 -48 -38 -103 -84z m235 -356 c146 -33 290 -150 360 -292 109
-223 71 -456 -105 -633 -167 -169 -409 -211 -623 -108 -94 45 -202 149 -250
240 -111 213 -69 476 103 648 67 66 171 126 250 145 55 12 210 13 265 0z"/>
<path d="M2201 3969 c-25 -60 -49 -113 -55 -117 -6 -4 -67 -11 -136 -17 l-125
-10 102 -88 101 -87 -30 -116 c-16 -64 -28 -120 -26 -125 2 -5 50 20 108 56
57 36 107 65 110 65 3 0 53 -29 110 -64 58 -36 106 -63 108 -61 2 2 -8 54 -22
115 -14 60 -26 117 -26 124 0 8 42 49 94 93 52 43 95 81 95 84 1 4 -55 10
-124 14 -146 8 -131 -4 -191 147 -21 54 -41 98 -44 98 -3 0 -25 -50 -49 -111z"/>
<path d="M141 3749 c-107 -43 -159 -176 -132 -345 6 -39 37 -165 70 -280 33
-115 78 -276 101 -359 98 -359 153 -440 603 -888 l279 -278 -1 -265 -2 -264
25 -25 25 -25 531 0 531 0 26 26 25 26 -5 351 c-9 635 -51 781 -281 976 -44
38 -128 95 -186 126 -220 121 -248 138 -311 185 -35 26 -151 126 -257 221
-245 220 -275 245 -340 269 -66 25 -125 25 -180 0 l-43 -19 -10 27 c-6 15 -22
59 -36 97 -99 273 -164 379 -265 429 -54 27 -122 33 -167 15z m136 -172 c11
-12 85 -175 163 -362 78 -187 154 -356 168 -375 51 -66 561 -629 581 -640 45
-24 101 16 101 72 0 21 -28 56 -126 160 -303 319 -464 522 -464 587 0 42 48
53 103 24 65 -33 142 -96 371 -305 173 -158 218 -189 458 -318 199 -107 324
-221 368 -337 10 -28 26 -91 34 -140 19 -109 38 -312 30 -324 -3 -5 -183 -9
-400 -9 l-395 0 -252 244 c-268 258 -381 377 -494 519 -116 144 -127 172 -279
712 -79 278 -88 319 -88 396 -1 73 2 90 19 109 24 27 69 21 102 -13z m1793
-2262 l0 -145 -430 0 -430 0 0 145 0 145 430 0 430 0 0 -145z"/>
<path d="M4195 3737 c-95 -47 -125 -91 -230 -352 -43 -104 -79 -193 -81 -197
-3 -4 -23 2 -47 12 -54 25 -113 25 -179 0 -65 -24 -95 -49 -340 -269 -106 -95
-222 -195 -257 -221 -63 -47 -91 -64 -311 -185 -58 -31 -142 -88 -186 -126
-230 -195 -271 -340 -281 -976 l-6 -351 26 -26 26 -26 531 0 531 0 25 25 25
25 -2 264 -1 265 279 278 c450 448 505 529 603 888 23 83 68 244 101 359 89
314 97 408 45 522 -47 103 -164 142 -271 91z m131 -148 c16 -17 19 -36 18
-108 0 -77 -9 -118 -88 -396 -152 -540 -164 -569 -285 -720 -109 -136 -226
-258 -488 -511 l-252 -244 -395 0 c-217 0 -397 4 -400 9 -8 12 11 215 30 324
8 49 24 112 34 140 44 116 169 230 368 337 240 129 285 160 458 318 294 268
374 327 431 320 111 -13 5 -173 -393 -596 -122 -128 -154 -168 -154 -190 0
-56 56 -96 101 -72 20 11 530 574 581 640 14 19 90 188 168 375 78 187 150
348 159 359 34 39 80 45 107 15z m-1036 -2274 l0 -145 -430 0 -430 0 0 145 0
145 430 0 430 0 0 -145z"/>
</g>
</svg>
